# Blender v2.80 (sub 75) OBJ File: ''
# www.blender.org
o Highrise_4_Mesh.366
v -0.712243 0.024529 0.497000
v -0.712243 4.795074 0.497001
v 0.712243 0.024529 0.497000
v 0.712243 4.795074 0.497001
v 0.712243 0.024529 -0.497000
v 0.712243 4.795074 -0.496999
v -0.712243 0.024529 -0.497000
v -0.712243 4.795074 -0.496999
v -0.656243 4.795074 0.441001
v 0.656243 4.795074 0.441001
v 0.656243 4.795074 -0.440999
v -0.656243 4.795074 -0.440999
v -0.656243 4.732074 0.441001
v 0.656243 4.732074 0.441001
v 0.656243 4.732074 -0.440999
v -0.656243 4.732074 -0.440999
v -0.712243 0.215529 0.497000
v -0.712243 4.604074 0.497001
v 0.712243 0.215529 0.497000
v 0.712243 4.604074 0.497001
v 0.712243 0.215529 -0.497000
v 0.712243 4.604074 -0.496999
v -0.712243 0.215529 -0.497000
v -0.712243 4.604074 -0.496999
v -0.712243 0.262529 0.497000
v -0.712243 4.557074 0.497001
v 0.712243 0.262529 0.497000
v 0.712243 4.557074 0.497001
v 0.712243 0.262529 -0.497000
v 0.712243 4.557074 -0.496999
v -0.712243 0.262529 -0.497000
v -0.712243 4.557074 -0.496999
v -0.748243 0.262529 0.533000
v -0.748243 4.557074 0.533001
v 0.748243 0.262529 0.533000
v 0.748243 4.557074 0.533001
v 0.748243 0.262529 -0.533000
v 0.748243 4.557074 -0.532999
v -0.748243 0.262529 -0.533000
v -0.748243 4.557074 -0.532999
v -0.660243 4.604074 0.445001
v 0.660243 4.604074 0.445001
v 0.660243 4.604074 -0.444999
v -0.660243 4.604074 -0.444999
v -0.660243 4.557074 0.445001
v 0.660243 4.557074 0.445001
v 0.660243 4.557074 -0.444999
v -0.660243 4.557074 -0.444999
v -0.489243 4.732074 0.274001
v 0.489243 4.732074 0.274001
v 0.489243 4.732074 -0.273999
v -0.489243 4.732074 -0.273999
v -0.489243 4.795074 0.274001
v 0.489243 4.795074 0.274001
v 0.489243 4.795074 -0.273999
v -0.489243 4.795074 -0.273999
v -0.399899 0.382529 0.533000
v -0.399899 4.437074 0.533001
v 0.399899 0.382529 0.533000
v 0.399899 4.437074 0.533001
v 0.399899 0.382529 -0.533000
v 0.399899 4.437074 -0.532999
v -0.399899 0.382529 -0.533000
v -0.399899 4.437074 -0.532999
v -0.399899 0.382529 0.373000
v -0.399899 4.437074 0.373001
v 0.399899 0.382529 0.373000
v 0.399899 4.437074 0.373001
v 0.399899 0.382529 -0.373000
v 0.399899 4.437074 -0.372999
v -0.399899 0.382529 -0.373000
v -0.399899 4.437074 -0.372999
vt 0.923738 0.076262
vt 0.923738 0.923738
vt 0.076262 0.923738
vt 0.076262 0.076262
vt 0.952223 0.047777
vt 0.952223 0.952223
vt 0.047777 0.952223
vt 0.047777 0.047777
vt 0.923738 0.076262
vt 0.923738 0.923738
vt 0.076262 0.923738
vt 0.076262 0.076262
vt 0.952223 0.047777
vt 0.952223 0.952223
vt 0.047777 0.952223
vt 0.047777 0.047777
vt 0.821710 0.178290
vt 0.821710 0.821710
vt 0.178290 0.821710
vt 0.178290 0.178290
vt 1.000000 0.000000
vt 1.000000 1.000000
vt 0.000000 1.000000
vt 0.000000 0.000000
vt 1.000000 0.000000
vt 0.955112 0.044888
vt 0.044888 0.044888
vt 0.000000 0.000000
vt 1.000000 1.000000
vt 0.955112 0.955112
vt 0.000000 1.000000
vt 0.044888 0.955112
vt 0.955112 0.044888
vt 0.044888 0.044888
vt 0.955112 0.955112
vt 0.044888 0.955112
vt 1.000000 0.000000
vt 0.963240 0.036760
vt 0.036760 0.036760
vt 0.000000 0.000000
vt 0.000000 1.000000
vt 0.036760 0.963240
vt 0.963240 0.963240
vt 1.000000 1.000000
vt 0.961629 0.038371
vt 0.038371 0.038371
vt 0.000000 0.000000
vt 0.000000 1.000000
vt 0.038371 0.961629
vt 0.961629 0.961629
vt 1.000000 0.000000
vt 0.963240 0.036760
vt 0.036760 0.036760
vt 0.000000 0.000000
vt 0.000000 1.000000
vt 0.036760 0.963240
vt 0.963240 0.963240
vt 1.000000 1.000000
vt 1.000000 0.000000
vt 0.961629 0.038371
vt 0.038371 0.038371
vt 0.038371 0.961629
vt 0.961629 0.961629
vt 1.000000 1.000000
vt 0.954264 0.045736
vt 0.045736 0.045736
vt 0.036760 0.963240
vt 0.045736 0.954264
vt 0.954264 0.954264
vt 0.963240 0.963240
vt 0.952223 0.047777
vt 0.047777 0.047777
vt 0.038371 0.961629
vt 0.047777 0.952223
vt 0.952223 0.952223
vt 0.961629 0.961629
vt 0.954264 0.045736
vt 0.045736 0.045736
vt 0.036760 0.963240
vt 0.045736 0.954264
vt 0.954264 0.954264
vt 0.963240 0.963240
vt 0.952223 0.047777
vt 0.047777 0.047777
vt 0.038371 0.961629
vt 0.047777 0.952223
vt 0.952223 0.952223
vt 0.961629 0.961629
vt 0.954264 0.045736
vt 0.045736 0.045736
vt 0.045736 0.954264
vt 0.045736 0.954264
vt 0.954264 0.954264
vt 0.954264 0.954264
vt 0.047777 0.952223
vt 0.952223 0.952223
vt 0.954264 0.045736
vt 0.045736 0.045736
vt 0.045736 0.954264
vt 0.045736 0.954264
vt 0.954264 0.954264
vt 0.954264 0.954264
vt 0.047777 0.952223
vt 0.952223 0.952223
vt 0.821710 0.178290
vt 0.178290 0.178290
vt 0.821710 0.821710
vt 0.178290 0.821710
vt 0.923738 0.076262
vt 0.076262 0.076262
vt 0.923738 0.923738
vt 0.076262 0.923738
vt 0.923738 0.076262
vt 0.076262 0.076262
vt 0.923738 0.923738
vt 0.076262 0.923738
vn 0.0000 -0.0000 1.0000
vn 1.0000 0.0000 0.0000
vn 0.0000 0.0000 -1.0000
vn -1.0000 -0.0000 0.0000
vn 0.0000 1.0000 0.0000
vn 0.0000 -1.0000 -0.0000
s 1
f 67/1/1 68/2/1 66/3/1 65/4/1
f 37/5/2 38/6/2 36/7/2 35/8/2
f 71/9/3 72/10/3 70/11/3 69/12/3
f 33/13/4 34/14/4 40/15/4 39/16/4
f 54/17/5 55/18/5 56/19/5 53/20/5
f 5/21/6 3/22/6 1/23/6 7/24/6
f 4/25/5 10/26/5 9/27/5 2/28/5
f 6/29/5 11/30/5 10/26/5 4/25/5
f 8/31/5 12/32/5 11/30/5 6/29/5
f 2/28/5 9/27/5 12/32/5 8/31/5
f 10/26/3 14/33/3 13/34/3 9/27/3
f 11/30/4 15/35/4 14/33/4 10/26/4
f 12/32/1 16/36/1 15/35/1 11/30/1
f 9/27/2 13/34/2 16/36/2 12/32/2
f 3/37/1 19/38/1 17/39/1 1/40/1
f 2/41/1 18/42/1 20/43/1 4/44/1
f 5/21/2 21/45/2 19/46/2 3/47/2
f 4/48/2 20/49/2 22/50/2 6/29/2
f 7/51/3 23/52/3 21/53/3 5/54/3
f 6/55/3 22/56/3 24/57/3 8/58/3
f 1/59/4 17/60/4 23/61/4 7/24/4
f 8/31/4 24/62/4 18/63/4 2/64/4
f 19/38/1 27/65/1 25/66/1 17/39/1
f 41/67/1 45/68/1 46/69/1 42/70/1
f 21/45/2 29/71/2 27/72/2 19/46/2
f 42/73/2 46/74/2 47/75/2 43/76/2
f 23/52/3 31/77/3 29/78/3 21/53/3
f 43/79/3 47/80/3 48/81/3 44/82/3
f 17/60/4 25/83/4 31/84/4 23/61/4
f 44/85/4 48/86/4 45/87/4 41/88/4
f 27/65/6 35/89/6 33/90/6 25/66/6
f 26/91/5 34/92/5 36/93/5 28/94/5
f 29/71/6 37/5/6 35/8/6 27/72/6
f 28/95/5 36/7/5 38/6/5 30/96/5
f 31/77/6 39/97/6 37/98/6 29/78/6
f 30/99/5 38/100/5 40/101/5 32/102/5
f 25/83/6 33/13/6 39/16/6 31/84/6
f 32/103/5 40/15/5 34/14/5 26/104/5
f 18/42/6 41/67/6 42/70/6 20/43/6
f 28/94/5 46/69/5 45/68/5 26/91/5
f 20/49/6 42/73/6 43/76/6 22/50/6
f 30/96/5 47/75/5 46/74/5 28/95/5
f 22/56/6 43/79/6 44/82/6 24/57/6
f 32/102/5 48/81/5 47/80/5 30/99/5
f 24/62/6 44/85/6 41/88/6 18/63/6
f 26/104/5 45/87/5 48/86/5 32/103/5
f 14/33/5 50/105/5 49/106/5 13/34/5
f 15/35/5 51/107/5 50/105/5 14/33/5
f 16/36/5 52/108/5 51/107/5 15/35/5
f 13/34/5 49/106/5 52/108/5 16/36/5
f 50/105/1 54/17/1 53/20/1 49/106/1
f 51/107/2 55/18/2 54/17/2 50/105/2
f 52/108/3 56/19/3 55/18/3 51/107/3
f 49/106/4 53/20/4 56/19/4 52/108/4
f 35/89/1 59/109/1 57/110/1 33/90/1
f 36/93/1 60/111/1 59/109/1 35/89/1
f 34/92/1 58/112/1 60/111/1 36/93/1
f 33/90/1 57/110/1 58/112/1 34/92/1
f 39/97/3 63/113/3 61/114/3 37/98/3
f 40/101/3 64/115/3 63/113/3 39/97/3
f 38/100/3 62/116/3 64/115/3 40/101/3
f 37/98/3 61/114/3 62/116/3 38/100/3
f 59/109/5 67/1/5 65/4/5 57/110/5
f 60/111/4 68/2/4 67/1/4 59/109/4
f 58/112/6 66/3/6 68/2/6 60/111/6
f 57/110/2 65/4/2 66/3/2 58/112/2
f 63/113/5 71/9/5 69/12/5 61/114/5
f 64/115/2 72/10/2 71/9/2 63/113/2
f 62/116/6 70/11/6 72/10/6 64/115/6
f 61/114/4 69/12/4 70/11/4 62/116/4
