# Blender v2.80 (sub 75) OBJ File: ''
# www.blender.org
o Highrise_9_Mesh.380
v -1.000000 0.007735 1.000000
v -1.000000 2.007735 1.000000
v 1.000000 0.007735 1.000000
v 1.000000 2.007735 1.000000
v 1.000000 0.007735 -1.000000
v 1.000000 2.007735 -1.000000
v -1.000000 0.007735 -1.000000
v -1.000000 2.007735 -1.000000
v -0.938000 0.069735 1.000000
v -0.938000 1.945735 1.000000
v 0.938000 0.069735 1.000000
v 0.938000 1.945735 1.000000
v 1.000000 0.069735 0.938000
v 1.000000 1.945735 0.938000
v 1.000000 0.069735 -0.938000
v 1.000000 1.945735 -0.938000
v 0.938000 0.069735 -1.000000
v 0.938000 1.945735 -1.000000
v -0.938000 0.069735 -1.000000
v -0.938000 1.945735 -1.000000
v -1.000000 0.069735 0.938000
v -1.000000 1.945735 0.938000
v -1.000000 0.069735 -0.938000
v -1.000000 1.945735 -0.938000
v -0.938000 0.069735 1.035000
v -0.938000 1.945735 1.035000
v 0.938000 0.069735 1.035000
v 0.938000 1.945735 1.035000
v 1.035000 0.069735 0.938000
v 1.035000 1.945735 0.938000
v 1.035000 0.069735 -0.938000
v 1.035000 1.945735 -0.938000
v 0.938000 0.069735 -1.035000
v 0.938000 1.945735 -1.035000
v -0.938000 0.069735 -1.035000
v -0.938000 1.945735 -1.035000
v -1.035000 0.069735 0.938000
v -1.035000 1.945735 0.938000
v -1.035000 0.069735 -0.938000
v -1.035000 1.945735 -0.938000
v -0.970000 2.007735 0.970000
v 0.970000 2.007735 0.970000
v 0.970000 2.007735 -0.970000
v -0.970000 2.007735 -0.970000
v -0.970000 2.518735 0.970000
v 0.970000 2.518735 0.970000
v 0.970000 2.518735 -0.970000
v -0.970000 2.518735 -0.970000
v -0.900000 2.518735 0.900000
v 0.900000 2.518735 0.900000
v 0.900000 2.518735 -0.900000
v -0.900000 2.518735 -0.900000
v -0.900000 2.251735 0.900000
v 0.900000 2.251735 0.900000
v 0.900000 2.251735 -0.900000
v -0.900000 2.251735 -0.900000
v -0.783000 2.251735 0.783000
v 0.783000 2.251735 0.783000
v 0.783000 2.251735 -0.783000
v -0.783000 2.251735 -0.783000
v -0.783000 2.874735 0.783000
v 0.783000 2.874735 0.783000
v 0.783000 2.874735 -0.783000
v -0.783000 2.874735 -0.783000
v -0.724000 2.874735 0.724000
v 0.724000 2.874735 0.724000
v 0.724000 2.874735 -0.724000
v -0.724000 2.874735 -0.724000
v -0.724000 2.670735 0.724000
v 0.724000 2.670735 0.724000
v 0.724000 2.670735 -0.724000
v -0.724000 2.670735 -0.724000
v -0.639000 2.670735 0.639000
v 0.639000 2.670735 0.639000
v 0.639000 2.670735 -0.639000
v -0.639000 2.670735 -0.639000
v -0.639000 3.329735 0.639001
v 0.639000 3.329735 0.639001
v 0.639000 3.329735 -0.638999
v -0.639000 3.329735 -0.638999
v -0.138000 3.830735 0.138001
v -0.138000 3.830735 -0.137999
v 0.138000 3.830735 -0.137999
v 0.138000 3.830735 0.138001
v -0.138000 4.238735 0.138001
v -0.138000 4.238735 -0.137999
v 0.138000 4.238735 -0.137999
v 0.138000 4.238735 0.138001
v -0.060000 4.238735 0.060001
v -0.060000 4.238735 -0.059999
v 0.060000 4.238735 -0.059999
v 0.060000 4.238735 0.060001
v -0.060000 4.696735 0.060001
v -0.060000 4.696735 -0.059999
v 0.060000 4.696735 -0.059999
v 0.060000 4.696735 0.060001
v -0.060000 4.698735 0.060001
v -0.060000 4.698735 -0.059999
v 0.060000 4.698735 -0.059999
v 0.060000 4.698735 0.060001
vt 0.969000 0.031000
vt 0.969000 0.969000
vt 0.031000 0.969000
vt 0.031000 0.031000
vt 0.969000 0.031000
vt 0.969000 0.969000
vt 0.031000 0.969000
vt 0.031000 0.031000
vt 0.969000 0.031000
vt 0.969000 0.969000
vt 0.031000 0.969000
vt 0.031000 0.031000
vt 0.969000 0.031000
vt 0.969000 0.969000
vt 0.031000 0.969000
vt 0.031000 0.031000
vt 0.530000 0.470000
vt 0.530000 0.530000
vt 0.470000 0.530000
vt 0.470000 0.470000
vt 1.000000 0.000000
vt 1.000000 1.000000
vt 0.000000 1.000000
vt 0.000000 0.000000
vt 1.000000 0.000000
vt 0.969000 0.031000
vt 0.031000 0.031000
vt 0.000000 0.000000
vt 1.000000 1.000000
vt 0.969000 0.969000
vt 0.000000 1.000000
vt 0.031000 0.969000
vt 0.969000 0.031000
vt 0.031000 0.031000
vt 0.000000 0.000000
vt 1.000000 1.000000
vt 0.969000 0.969000
vt 0.000000 1.000000
vt 0.031000 0.969000
vt 1.000000 0.000000
vt 0.969000 0.031000
vt 0.031000 0.031000
vt 0.000000 0.000000
vt 1.000000 1.000000
vt 0.969000 0.969000
vt 0.000000 1.000000
vt 0.031000 0.969000
vt 1.000000 0.000000
vt 0.969000 0.031000
vt 0.031000 0.031000
vt 1.000000 1.000000
vt 0.969000 0.969000
vt 0.000000 1.000000
vt 0.031000 0.969000
vt 1.000000 0.000000
vt 0.985000 0.015000
vt 0.015000 0.015000
vt 0.000000 0.000000
vt 0.985000 0.985000
vt 0.015000 0.985000
vt 0.985000 0.015000
vt 0.015000 0.015000
vt 0.985000 0.985000
vt 0.015000 0.985000
vt 0.950000 0.050000
vt 0.050000 0.050000
vt 0.950000 0.950000
vt 0.050000 0.950000
vt 0.950000 0.050000
vt 0.050000 0.050000
vt 0.950000 0.950000
vt 0.050000 0.950000
vt 0.891500 0.108500
vt 0.108500 0.108500
vt 0.891500 0.891500
vt 0.108500 0.891500
vt 0.891500 0.108500
vt 0.108500 0.108500
vt 0.891500 0.891500
vt 0.108500 0.891500
vt 0.862000 0.138000
vt 0.138000 0.138000
vt 0.862000 0.862000
vt 0.138000 0.862000
vt 0.862000 0.138000
vt 0.138000 0.138000
vt 0.862000 0.862000
vt 0.138000 0.862000
vt 0.819500 0.180500
vt 0.180500 0.180500
vt 0.819500 0.819500
vt 0.180500 0.819500
vt 0.819500 0.180500
vt 0.180500 0.180500
vt 0.819500 0.819500
vt 0.180500 0.819500
vt 0.431000 0.431000
vt 0.431000 0.569000
vt 0.569000 0.569000
vt 0.569000 0.431000
vt 0.569000 0.431000
vt 0.431000 0.431000
vt 0.569000 0.569000
vt 0.431000 0.569000
vt 0.530000 0.470000
vt 0.470000 0.470000
vt 0.530000 0.530000
vt 0.470000 0.530000
vt 0.530000 0.470000
vt 0.470000 0.470000
vt 0.530000 0.530000
vt 0.470000 0.530000
vn 0.0000 -0.0000 1.0000
vn 1.0000 -0.0000 0.0000
vn 0.0000 0.0000 -1.0000
vn -1.0000 0.0000 0.0000
vn 0.0000 1.0000 0.0000
vn 0.0000 -1.0000 -0.0000
vn -0.7071 0.7071 0.0000
vn 0.0000 0.7071 -0.7071
vn 0.7071 0.7071 0.0000
vn 0.0000 0.7071 0.7071
s 1
f 27/1/1 28/2/1 26/3/1 25/4/1
f 31/5/2 32/6/2 30/7/2 29/8/2
f 35/9/3 36/10/3 34/11/3 33/12/3
f 37/13/4 38/14/4 40/15/4 39/16/4
f 100/17/5 99/18/5 98/19/5 97/20/5
f 5/21/6 3/22/6 1/23/6 7/24/6
f 3/25/1 11/26/1 9/27/1 1/28/1
f 4/29/1 12/30/1 11/26/1 3/25/1
f 2/31/1 10/32/1 12/30/1 4/29/1
f 1/28/1 9/27/1 10/32/1 2/31/1
f 5/21/2 15/33/2 13/34/2 3/35/2
f 6/36/2 16/37/2 15/33/2 5/21/2
f 4/38/2 14/39/2 16/37/2 6/36/2
f 3/35/2 13/34/2 14/39/2 4/38/2
f 7/40/3 19/41/3 17/42/3 5/43/3
f 8/44/3 20/45/3 19/41/3 7/40/3
f 6/46/3 18/47/3 20/45/3 8/44/3
f 5/43/3 17/42/3 18/47/3 6/46/3
f 1/48/4 21/49/4 23/50/4 7/24/4
f 2/51/4 22/52/4 21/49/4 1/48/4
f 8/53/4 24/54/4 22/52/4 2/51/4
f 7/24/4 23/50/4 24/54/4 8/53/4
f 11/26/6 27/1/6 25/4/6 9/27/6
f 12/30/2 28/2/2 27/1/2 11/26/2
f 10/32/5 26/3/5 28/2/5 12/30/5
f 9/27/4 25/4/4 26/3/4 10/32/4
f 15/33/6 31/5/6 29/8/6 13/34/6
f 16/37/3 32/6/3 31/5/3 15/33/3
f 14/39/5 30/7/5 32/6/5 16/37/5
f 13/34/1 29/8/1 30/7/1 14/39/1
f 19/41/6 35/9/6 33/12/6 17/42/6
f 20/45/4 36/10/4 35/9/4 19/41/4
f 18/47/5 34/11/5 36/10/5 20/45/5
f 17/42/2 33/12/2 34/11/2 18/47/2
f 21/49/6 37/13/6 39/16/6 23/50/6
f 22/52/1 38/14/1 37/13/1 21/49/1
f 24/54/5 40/15/5 38/14/5 22/52/5
f 23/50/3 39/16/3 40/15/3 24/54/3
f 4/55/5 42/56/5 41/57/5 2/58/5
f 6/36/5 43/59/5 42/56/5 4/55/5
f 8/53/5 44/60/5 43/59/5 6/36/5
f 2/58/5 41/57/5 44/60/5 8/53/5
f 42/56/1 46/61/1 45/62/1 41/57/1
f 43/59/2 47/63/2 46/61/2 42/56/2
f 44/60/3 48/64/3 47/63/3 43/59/3
f 41/57/4 45/62/4 48/64/4 44/60/4
f 46/61/5 50/65/5 49/66/5 45/62/5
f 47/63/5 51/67/5 50/65/5 46/61/5
f 48/64/5 52/68/5 51/67/5 47/63/5
f 45/62/5 49/66/5 52/68/5 48/64/5
f 50/65/3 54/69/3 53/70/3 49/66/3
f 51/67/4 55/71/4 54/69/4 50/65/4
f 52/68/1 56/72/1 55/71/1 51/67/1
f 49/66/2 53/70/2 56/72/2 52/68/2
f 54/69/5 58/73/5 57/74/5 53/70/5
f 55/71/5 59/75/5 58/73/5 54/69/5
f 56/72/5 60/76/5 59/75/5 55/71/5
f 53/70/5 57/74/5 60/76/5 56/72/5
f 58/73/1 62/77/1 61/78/1 57/74/1
f 59/75/2 63/79/2 62/77/2 58/73/2
f 60/76/3 64/80/3 63/79/3 59/75/3
f 57/74/4 61/78/4 64/80/4 60/76/4
f 62/77/5 66/81/5 65/82/5 61/78/5
f 63/79/5 67/83/5 66/81/5 62/77/5
f 64/80/5 68/84/5 67/83/5 63/79/5
f 61/78/5 65/82/5 68/84/5 64/80/5
f 66/81/3 70/85/3 69/86/3 65/82/3
f 67/83/4 71/87/4 70/85/4 66/81/4
f 68/84/1 72/88/1 71/87/1 67/83/1
f 65/82/2 69/86/2 72/88/2 68/84/2
f 70/85/5 74/89/5 73/90/5 69/86/5
f 71/87/5 75/91/5 74/89/5 70/85/5
f 72/88/5 76/92/5 75/91/5 71/87/5
f 69/86/5 73/90/5 76/92/5 72/88/5
f 74/89/1 78/93/1 77/94/1 73/90/1
f 75/91/2 79/95/2 78/93/2 74/89/2
f 76/92/3 80/96/3 79/95/3 75/91/3
f 73/90/4 77/94/4 80/96/4 76/92/4
f 77/94/7 81/97/7 82/98/7 80/96/7
f 80/96/8 82/98/8 83/99/8 79/95/8
f 79/95/9 83/99/9 84/100/9 78/93/9
f 78/93/10 84/100/10 81/97/10 77/94/10
f 84/100/1 88/101/1 85/102/1 81/97/1
f 83/99/2 87/103/2 88/101/2 84/100/2
f 82/98/3 86/104/3 87/103/3 83/99/3
f 81/97/4 85/102/4 86/104/4 82/98/4
f 88/101/5 92/105/5 89/106/5 85/102/5
f 87/103/5 91/107/5 92/105/5 88/101/5
f 86/104/5 90/108/5 91/107/5 87/103/5
f 85/102/5 89/106/5 90/108/5 86/104/5
f 92/105/1 96/109/1 93/110/1 89/106/1
f 91/107/2 95/111/2 96/109/2 92/105/2
f 90/108/3 94/112/3 95/111/3 91/107/3
f 89/106/4 93/110/4 94/112/4 90/108/4
f 96/109/1 100/17/1 97/20/1 93/110/1
f 95/111/2 99/18/2 100/17/2 96/109/2
f 94/112/3 98/19/3 99/18/3 95/111/3
f 93/110/4 97/20/4 98/19/4 94/112/4
