# Blender v2.81 (sub 16) OBJ File: ''
# www.blender.org
o virtaliot
v 0.029309 0.109063 -0.050861
v -0.029309 0.109063 -0.050861
v -0.029309 0.138416 -0.050861
v 0.029309 0.138416 -0.050861
v -0.081484 0.109063 -0.080985
v -0.110793 0.109063 -0.030220
v -0.110793 0.138416 -0.030220
v -0.081484 0.138416 -0.080985
v -0.058618 0.109063 -0.000097
v -0.029309 0.109062 0.050668
v -0.029309 0.138416 0.050668
v -0.058618 0.138416 -0.000097
v -0.029309 0.109062 0.110914
v 0.029309 0.109062 0.110914
v 0.029309 0.138416 0.110914
v -0.029309 0.138416 0.110914
v 0.029309 0.109062 0.050668
v 0.058618 0.109063 -0.000097
v 0.058618 0.138416 -0.000097
v 0.029309 0.138416 0.050668
v 0.110793 0.109063 -0.030220
v 0.081484 0.109063 -0.080985
v 0.081484 0.138416 -0.080985
v 0.110793 0.138416 -0.030220
v 0.013689 0.226330 -0.023807
v -0.013689 0.226330 -0.023807
v 0.000000 0.239069 -0.000097
v -0.027378 0.226330 -0.000097
v -0.013689 0.226330 0.023613
v 0.013689 0.226330 0.023613
v 0.027378 0.226330 -0.000097
v -0.008316 0.172357 -0.014501
v 0.008316 0.172357 -0.014501
v -0.016632 0.172357 -0.000097
v -0.008316 0.172357 0.014307
v 0.008316 0.172357 0.014307
v 0.016632 0.172357 -0.000097
v 0.008316 0.207228 -0.014501
v -0.008316 0.207228 -0.014501
v -0.015384 0.207228 -0.026744
v 0.015384 0.207228 -0.026744
v -0.016632 0.207228 -0.000097
v -0.030769 0.207228 -0.000097
v -0.008316 0.207228 0.014307
v -0.015384 0.207228 0.026550
v 0.008316 0.207228 0.014307
v 0.015384 0.207228 0.026550
v 0.016632 0.207228 -0.000097
v 0.030769 0.207228 -0.000097
v 1.261146 0.124135 -0.659229
v 1.231276 0.138563 -0.710966
v 0.163068 0.138563 -0.094236
v 0.184034 0.124134 -0.057921
v 1.201405 0.124135 -0.762702
v 0.142102 0.124135 -0.130550
v 0.163068 0.109706 -0.094236
v 1.231276 0.109707 -0.710966
v 1.281774 0.124135 -0.740121
v 1.289399 0.124135 -0.703090
v 1.253517 0.124135 -0.765239
v 0.164311 0.114667 -0.094936
v 0.159582 0.124125 -0.103127
v 0.164296 0.133554 -0.094961
v 0.169025 0.124097 -0.086770
v 0.095931 0.133554 -0.055491
v 0.100661 0.124097 -0.047300
v 0.091217 0.124125 -0.063657
v 0.095946 0.114667 -0.055466
v -0.059741 0.124134 1.421667
v 0.000000 0.138562 1.421667
v 0.000000 0.138562 0.188207
v -0.041932 0.124134 0.188207
v 0.059741 0.124134 1.421667
v 0.041932 0.124134 0.188207
v 0.000000 0.109706 0.188207
v 0.000000 0.109706 1.421667
v 0.000000 0.124134 1.479977
v -0.035882 0.124134 1.468065
v 0.035882 0.124134 1.468065
v -0.000015 0.114667 0.189633
v 0.009444 0.124125 0.189633
v 0.000015 0.133554 0.189633
v -0.009444 0.124096 0.189633
v 0.000015 0.133554 0.110692
v -0.009444 0.124096 0.110692
v 0.009444 0.124125 0.110692
v -0.000015 0.114667 0.110692
v -1.201405 0.124135 -0.762702
v -1.231276 0.138563 -0.710966
v -0.163068 0.138563 -0.094236
v -0.142102 0.124135 -0.130550
v -1.261146 0.124135 -0.659229
v -0.184034 0.124134 -0.057921
v -0.163068 0.109706 -0.094236
v -1.231276 0.109707 -0.710966
v -1.281774 0.124135 -0.740121
v -1.253517 0.124135 -0.765239
v -1.289399 0.124135 -0.703090
v -0.164296 0.114667 -0.094961
v -0.169025 0.124125 -0.086770
v -0.164311 0.133554 -0.094936
v -0.159582 0.124097 -0.103127
v -0.095946 0.133554 -0.055466
v -0.091217 0.124097 -0.063657
v -0.100661 0.124125 -0.047300
v -0.095931 0.114667 -0.055491
v 0.008323 0.109063 -0.014513
v -0.008323 0.109063 -0.014513
v -0.016647 0.109063 -0.000097
v -0.008323 0.109063 0.014320
v 0.008323 0.109063 0.014320
v 0.016647 0.109063 -0.000097
v 0.008323 0.038419 -0.014514
v -0.008323 0.038419 -0.014513
v -0.016647 0.038419 -0.000097
v -0.008323 0.038419 0.014319
v 0.008323 0.038419 0.014319
v 0.016647 0.038419 -0.000097
v 0.068784 -0.001424 -0.000063
v 0.048638 -0.001424 -0.048701
v 0.035745 0.039202 -0.035808
v 0.050551 0.039202 -0.000063
v 0.000000 -0.001424 -0.068848
v 0.000000 0.039202 -0.050614
v -0.048638 -0.001424 -0.048701
v -0.035745 0.039202 -0.035808
v -0.068784 -0.001424 -0.000063
v -0.050551 0.039202 -0.000063
v -0.048638 -0.001424 0.048575
v -0.035745 0.039202 0.035682
v 0.000000 -0.001424 0.068721
v 0.000000 0.039202 0.050488
v 0.048638 -0.001424 0.048575
v 0.035745 0.039202 0.035682
vt 0.000000 0.159155
vt 0.166667 0.159155
vt 0.166667 0.477465
vt 0.000000 0.477465
vt 0.166667 0.159155
vt 0.333333 0.159155
vt 0.333333 0.477465
vt 0.166667 0.477465
vt 0.333333 0.159155
vt 0.500000 0.159155
vt 0.500000 0.477465
vt 0.333333 0.477465
vt 0.500000 0.159155
vt 0.666667 0.159155
vt 0.666667 0.477465
vt 0.500000 0.477465
vt 0.666667 0.159155
vt 0.833333 0.159155
vt 0.833333 0.477465
vt 0.666667 0.477465
vt 0.833333 0.159155
vt 1.000000 0.159155
vt 1.000000 0.477465
vt 0.833333 0.477465
vt 0.000000 0.477465
vt 0.166667 0.477465
vt 0.500000 0.636620
vt 0.333333 0.477465
vt 0.500000 0.477465
vt 0.666667 0.477465
vt 0.833333 0.477465
vt 1.000000 0.477465
vt 1.000000 0.159155
vt 1.000000 0.477465
vt 0.166667 0.477465
vt 0.000000 0.477465
vt 0.333333 0.477465
vt 0.500000 0.477465
vt 0.666667 0.477465
vt 0.833333 0.477465
vt 1.000000 0.477465
vt 0.000000 0.477465
vt 0.166667 0.477465
vt 0.166667 0.477465
vt 0.000000 0.477465
vt 0.333333 0.477465
vt 0.333333 0.477465
vt 0.500000 0.477465
vt 0.500000 0.477465
vt 0.666667 0.477465
vt 0.666667 0.477465
vt 0.833333 0.477465
vt 0.833333 0.477465
vt 1.000000 0.477465
vt 1.000000 0.477465
vt 0.000000 0.500000
vt 0.500000 1.000000
vt 0.500000 2.000000
vt 0.000000 2.500000
vt 1.000000 0.500000
vt 1.000000 2.500000
vt 0.500000 3.000000
vt 0.500000 4.000000
vt 0.000000 4.000000
vt 1.000000 4.000000
vt 0.500000 0.000000
vt 0.500000 0.500000
vt 0.000000 0.500000
vt 1.000000 0.500000
vt 0.000000 0.000000
vt 1.000000 0.000000
vt 1.000000 1.000000
vt 0.000000 1.000000
vt 1.000000 2.000000
vt 0.000000 2.000000
vt 1.000000 3.000000
vt 0.000000 3.000000
vt 1.000000 4.000000
vt 0.000000 4.000000
vt 2.000000 0.000000
vt 2.000000 1.000000
vt -1.000000 0.000000
vt -1.000000 1.000000
vt 0.000000 0.500000
vt 0.500000 1.000000
vt 0.500000 2.000000
vt 0.000000 2.500000
vt 1.000000 0.500000
vt 1.000000 2.500000
vt 0.500000 3.000000
vt 0.500000 4.000000
vt 0.000000 4.000000
vt 1.000000 4.000000
vt 0.500000 0.000000
vt 0.500000 0.500000
vt 0.000000 0.500000
vt 1.000000 0.500000
vt 0.000000 0.000000
vt 1.000000 0.000000
vt 1.000000 1.000000
vt 0.000000 1.000000
vt 1.000000 2.000000
vt 0.000000 2.000000
vt 1.000000 3.000000
vt 0.000000 3.000000
vt 1.000000 4.000000
vt 0.000000 4.000000
vt 2.000000 0.000000
vt 2.000000 1.000000
vt -1.000000 0.000000
vt -1.000000 1.000000
vt 0.000000 0.500000
vt 0.500000 1.000000
vt 0.500000 2.000000
vt 0.000000 2.500000
vt 1.000000 0.500000
vt 1.000000 2.500000
vt 0.500000 3.000000
vt 0.500000 4.000000
vt 0.000000 4.000000
vt 1.000000 4.000000
vt 0.500000 0.000000
vt 0.500000 0.500000
vt 0.000000 0.500000
vt 1.000000 0.500000
vt 0.000000 0.000000
vt 1.000000 0.000000
vt 1.000000 1.000000
vt 0.000000 1.000000
vt 1.000000 2.000000
vt 0.000000 2.000000
vt 1.000000 3.000000
vt 0.000000 3.000000
vt 1.000000 4.000000
vt 0.000000 4.000000
vt 2.000000 0.000000
vt 2.000000 1.000000
vt -1.000000 0.000000
vt -1.000000 1.000000
vt 0.000000 0.159155
vt 0.166667 0.159155
vt 0.333333 0.159155
vt 0.500000 0.159155
vt 0.666667 0.159155
vt 0.833333 0.159155
vt 1.000000 0.159155
vt 0.000000 0.159155
vt 0.166667 0.159155
vt 0.333333 0.159155
vt 0.500000 0.159155
vt 0.666667 0.159155
vt 0.833333 0.159155
vt 1.000000 0.159155
vt 0.000000 0.159155
vt 0.125000 0.159155
vt 0.125000 0.318310
vt 0.000000 0.318310
vt 0.250000 0.159155
vt 0.250000 0.318310
vt 0.375000 0.159155
vt 0.375000 0.318310
vt 0.500000 0.159155
vt 0.500000 0.318310
vt 0.625000 0.159155
vt 0.625000 0.318310
vt 0.750000 0.159155
vt 0.625000 0.397887
vt 0.875000 0.159155
vt 0.875000 0.318310
vt 1.000000 0.159155
vt 1.000000 0.318310
vn 0.0000 0.0000 -1.0000
vn -0.8660 0.0000 -0.5000
vn -0.8660 0.0000 0.5000
vn 0.0000 -0.0000 1.0000
vn 0.8660 0.0000 0.5000
vn 0.8660 0.0000 -0.5000
vn 0.0000 0.8809 -0.4733
vn -0.4099 0.8809 -0.2366
vn -0.4099 0.8809 0.2366
vn 0.0000 0.8809 0.4733
vn 0.4099 0.8809 0.2366
vn 0.4099 0.8809 -0.2366
vn -0.5000 -0.0000 0.8660
vn -0.0000 1.0000 0.0000
vn 0.5000 0.0000 -0.8660
vn 1.0000 -0.0000 0.0000
vn -1.0000 -0.0000 0.0000
vn -0.5000 0.0000 -0.8660
vn 0.5000 -0.0000 0.8660
vn 0.0000 0.7310 -0.6824
vn -0.5909 0.7310 -0.3412
vn -0.5909 0.7310 0.3412
vn 0.0000 0.7310 0.6824
vn 0.5909 0.7310 0.3412
vn 0.5909 0.7310 -0.3412
vn 0.0000 -1.0000 0.0000
vn 0.0000 0.1520 -0.9884
vn -0.8560 0.1519 -0.4942
vn -0.8560 0.1519 0.4942
vn 0.0000 0.1520 0.9884
vn 0.8560 0.1519 0.4942
vn 0.8560 0.1519 -0.4942
vn 0.1348 0.9620 0.2374
vn -0.1382 0.9620 -0.2355
vn 0.1348 -0.9620 0.2374
vn -0.1382 -0.9620 -0.2355
vn 0.2329 -0.9707 0.0594
vn 0.2329 0.9707 0.0594
vn 0.0650 -0.9707 -0.2314
vn 0.0650 0.9707 -0.2314
vn 0.3535 0.7071 0.6124
vn -0.3535 -0.7071 -0.6124
vn -0.3535 0.7071 -0.6124
vn 0.3535 -0.7071 0.6124
vn -0.2730 0.9620 -0.0020
vn 0.2730 0.9620 -0.0020
vn -0.2730 -0.9620 -0.0020
vn 0.2730 -0.9620 -0.0020
vn -0.1679 -0.9707 0.1720
vn -0.1679 0.9707 0.1720
vn 0.1679 -0.9707 0.1720
vn 0.1679 0.9707 0.1720
vn -0.7071 0.7071 0.0000
vn 0.7071 -0.7071 -0.0000
vn 0.7071 0.7071 0.0000
vn -0.7071 -0.7071 -0.0000
vn 0.1382 0.9620 -0.2355
vn -0.1348 0.9620 0.2374
vn 0.1382 -0.9620 -0.2355
vn -0.1348 -0.9620 0.2374
vn -0.0650 -0.9707 -0.2314
vn -0.0650 0.9707 -0.2314
vn -0.2329 -0.9707 0.0594
vn -0.2329 0.9707 0.0594
vn 0.3535 0.7071 -0.6124
vn -0.3535 -0.7071 0.6124
vn -0.3535 0.7071 0.6124
vn 0.3536 -0.7071 -0.6124
vn 0.1650 -0.7703 -0.6160
vn -0.4509 -0.7703 0.4509
vn -0.7887 -0.5773 0.2113
vn -0.2113 -0.5773 -0.7887
vn -0.6160 -0.7703 0.1650
vn 0.6160 -0.7703 0.1650
vn 0.5773 -0.5774 0.5774
vn -0.5774 -0.5774 0.5773
vn 0.4509 -0.7703 0.4509
vn -0.1650 -0.7703 -0.6160
vn 0.2113 -0.5773 -0.7887
vn 0.7887 -0.5773 0.2113
vn 0.4343 0.4955 -0.7523
vn -0.4344 0.4955 -0.7522
vn -0.2723 -0.8386 -0.4717
vn 0.2723 -0.8386 -0.4717
vn -0.8686 0.4955 0.0000
vn -0.5447 -0.8386 0.0000
vn -0.4344 0.4955 0.7522
vn -0.2724 -0.8386 0.4717
vn 0.4343 0.4955 0.7523
vn 0.2722 -0.8386 0.4718
vn 0.8686 0.4955 0.0000
vn 0.5447 -0.8386 -0.0000
vn -0.2724 -0.8386 -0.4717
vn -0.2723 -0.8386 0.4717
vn 0.2723 -0.8386 0.4717
vn 0.9123 0.4095 0.0000
vn 0.6451 0.4095 -0.6451
vn 0.4422 0.7803 -0.4422
vn 0.6254 0.7803 0.0000
vn 0.0000 0.4095 -0.9123
vn 0.0000 0.7803 -0.6254
vn -0.6451 0.4095 -0.6451
vn -0.4422 0.7803 -0.4422
vn -0.9123 0.4095 0.0000
vn -0.6254 0.7803 0.0000
vn -0.6451 0.4095 0.6451
vn -0.4422 0.7803 0.4422
vn 0.0000 0.4095 0.9123
vn 0.0000 0.7803 0.6254
vn 0.6451 0.4095 0.6451
vn 0.4422 0.7803 0.4422
s off
f 1/1/1 2/2/1 3/3/1 4/4/1
f 5/5/2 6/6/2 7/7/2 8/8/2
f 9/9/3 10/10/3 11/11/3 12/12/3
f 13/13/4 14/14/4 15/15/4 16/16/4
f 17/17/5 18/18/5 19/19/5 20/20/5
f 21/21/6 22/22/6 23/23/6 24/24/6
f 25/25/7 26/26/7 27/27/7
f 26/26/8 28/28/8 27/27/8
f 28/28/9 29/29/9 27/27/9
f 29/29/10 30/30/10 27/27/10
f 30/30/11 31/31/11 27/27/11
f 31/31/12 25/32/12 27/27/12
f 9/9/13 12/12/13 7/7/13 6/6/13
f 12/12/14 3/3/14 8/8/14 7/7/14
f 3/3/15 2/2/15 5/5/15 8/8/15
f 17/17/16 20/20/16 15/15/16 14/14/16
f 20/20/14 11/11/14 16/16/14 15/15/14
f 11/11/17 10/10/17 13/13/17 16/16/17
f 1/33/18 4/34/18 23/23/18 22/22/18
f 4/34/14 19/19/14 24/24/14 23/23/14
f 19/19/19 18/18/19 21/21/19 24/24/19
f 4/4/20 3/3/20 32/35/20 33/36/20
f 3/3/21 12/12/21 34/37/21 32/35/21
f 12/12/22 11/11/22 35/38/22 34/37/22
f 11/11/23 20/20/23 36/39/23 35/38/23
f 20/20/24 19/19/24 37/40/24 36/39/24
f 19/19/25 4/34/25 33/41/25 37/40/25
f 38/42/26 39/43/26 40/44/26 41/45/26
f 39/43/26 42/46/26 43/47/26 40/44/26
f 42/46/26 44/48/26 45/49/26 43/47/26
f 44/48/26 46/50/26 47/51/26 45/49/26
f 46/50/26 48/52/26 49/53/26 47/51/26
f 48/52/26 38/54/26 41/55/26 49/53/26
f 41/45/27 40/44/27 26/26/27 25/25/27
f 40/44/28 43/47/28 28/28/28 26/26/28
f 43/47/29 45/49/29 29/29/29 28/28/29
f 45/49/30 47/51/30 30/30/30 29/29/30
f 47/51/31 49/53/31 31/31/31 30/30/31
f 49/53/32 41/55/32 25/32/32 31/31/32
f 50/56/33 51/57/33 52/58/33 53/59/33
f 51/57/34 54/60/34 55/61/34 52/58/34
f 53/59/3 52/58/3 56/62/3
f 52/58/3 55/61/3 56/62/3
f 53/59/35 56/62/35 57/63/35 50/64/35
f 56/62/36 55/61/36 54/65/36 57/63/36
f 50/56/37 57/66/37 58/67/37 59/68/37
f 51/57/38 50/56/38 59/68/38 58/67/38
f 57/66/39 54/60/39 60/69/39 58/67/39
f 54/60/40 51/57/40 58/67/40 60/69/40
f 61/70/6 62/71/6 63/72/6 64/73/6
f 64/73/41 63/72/41 65/74/41 66/75/41
f 66/75/3 65/74/3 67/76/3 68/77/3
f 68/77/42 67/76/42 62/78/42 61/79/42
f 62/71/43 67/80/43 65/81/43 63/72/43
f 68/82/44 61/70/44 64/73/44 66/83/44
f 69/84/45 70/85/45 71/86/45 72/87/45
f 70/85/46 73/88/46 74/89/46 71/86/46
f 72/87/1 71/86/1 75/90/1
f 71/86/1 74/89/1 75/90/1
f 72/87/47 75/90/47 76/91/47 69/92/47
f 75/90/48 74/89/48 73/93/48 76/91/48
f 69/84/49 76/94/49 77/95/49 78/96/49
f 70/85/50 69/84/50 78/96/50 77/95/50
f 76/94/51 73/88/51 79/97/51 77/95/51
f 73/88/52 70/85/52 77/95/52 79/97/52
f 80/98/4 81/99/4 82/100/4 83/101/4
f 83/101/53 82/100/53 84/102/53 85/103/53
f 85/103/1 84/102/1 86/104/1 87/105/1
f 87/105/54 86/104/54 81/106/54 80/107/54
f 81/99/55 86/108/55 84/109/55 82/100/55
f 87/110/56 80/98/56 83/101/56 85/111/56
f 88/112/57 89/113/57 90/114/57 91/115/57
f 89/113/58 92/116/58 93/117/58 90/114/58
f 91/115/5 90/114/5 94/118/5
f 90/114/5 93/117/5 94/118/5
f 91/115/59 94/118/59 95/119/59 88/120/59
f 94/118/60 93/117/60 92/121/60 95/119/60
f 88/112/61 95/122/61 96/123/61 97/124/61
f 89/113/62 88/112/62 97/124/62 96/123/62
f 95/122/63 92/116/63 98/125/63 96/123/63
f 92/116/64 89/113/64 96/123/64 98/125/64
f 99/126/2 100/127/2 101/128/2 102/129/2
f 102/129/65 101/128/65 103/130/65 104/131/65
f 104/131/5 103/130/5 105/132/5 106/133/5
f 106/133/66 105/132/66 100/134/66 99/135/66
f 100/127/67 105/136/67 103/137/67 101/128/67
f 106/138/68 99/126/68 102/129/68 104/139/68
s 1
f 2/2/69 9/9/70 6/6/71 5/5/72
f 10/10/73 17/17/74 14/14/75 13/13/76
f 18/18/77 1/33/78 22/22/79 21/21/80
f 33/36/81 32/35/82 39/43/83 38/42/84
f 32/35/82 34/37/85 42/46/86 39/43/83
f 34/37/85 35/38/87 44/48/88 42/46/86
f 35/38/87 36/39/89 46/50/90 44/48/88
f 36/39/89 37/40/91 48/52/92 46/50/90
f 37/40/91 33/41/81 38/54/84 48/52/92
f 2/2/69 1/1/78 107/140/84 108/141/93
f 9/9/70 2/2/69 108/141/93 109/142/86
f 10/10/73 9/9/70 109/142/86 110/143/94
f 17/17/74 10/10/73 110/143/94 111/144/95
f 18/18/77 17/17/74 111/144/95 112/145/92
f 1/33/78 18/18/77 112/145/92 107/146/84
f 108/141/93 107/140/84 113/147/15 114/148/18
f 109/142/86 108/141/93 114/148/18 115/149/17
f 110/143/94 109/142/86 115/149/17 116/150/13
f 111/144/95 110/143/94 116/150/13 117/151/19
f 112/145/92 111/144/95 117/151/19 118/152/16
f 107/146/84 112/145/92 118/152/16 113/153/15
f 119/154/96 120/155/97 121/156/98 122/157/99
f 120/155/97 123/158/100 124/159/101 121/156/98
f 123/158/100 125/160/102 126/161/103 124/159/101
f 125/160/102 127/162/104 128/163/105 126/161/103
f 127/162/104 129/164/106 130/165/107 128/163/105
f 129/164/106 131/166/108 132/167/109 130/165/107
f 131/166/108 133/168/110 134/169/111 132/167/109
f 133/168/110 119/170/96 122/171/99 134/169/111
f 122/157/99 121/156/98 132/167/109
f 121/156/98 124/159/101 132/167/109
f 124/159/101 126/161/103 132/167/109
f 126/161/103 128/163/105 132/167/109
f 128/163/105 130/165/107 132/167/109
f 134/169/111 122/171/99 132/167/109
